<svg xmlns="http://www.w3.org/2000/svg" width="35" height="35" viewBox="0 0 35 35"><defs><style>.a{fill:#fff;}.b{fill:#1aaae2;}</style></defs><path class="a" d="M17.5,0A17.5,17.5,0,1,1,0,17.5,17.5,17.5,0,0,1,17.5,0Z"/><g transform="translate(28.538 19.923) rotate(180)"><path class="b" d="M4.308,2.154A2.154,2.154,0,1,1,2.154,0,2.153,2.153,0,0,1,4.308,2.154Zm0,0"/><path class="b" d="M4.308,2.154A2.154,2.154,0,1,1,2.154,0,2.153,2.153,0,0,1,4.308,2.154Zm0,0" transform="translate(8.615)"/><path class="b" d="M4.308,2.154A2.154,2.154,0,1,1,2.154,0,2.154,2.154,0,0,1,4.308,2.154Zm0,0" transform="translate(17.231)"/></g></svg>