<svg xmlns="http://www.w3.org/2000/svg" xmlns:xlink="http://www.w3.org/1999/xlink" width="25" height="25" viewBox="0 0 25 25"><defs><style>.a{fill:none;}.b{clip-path:url(#a);}.c{fill:#fff;}</style><clipPath id="a"><rect class="a" width="25" height="25"/></clipPath></defs><g class="b"><path class="c" d="M23.954,11.25H22.5V8.638A1.14,1.14,0,0,0,21.362,7.5H20V6.494l-.206-.206h0l-3.04-3.04L13.506,0H3.333V4.583H1.138A1.14,1.14,0,0,0,0,5.722v18.2H0A1.064,1.064,0,0,0,1.069,25h18.65a1.058,1.058,0,0,0,1.021-.755L25,12.562v-.074A1.116,1.116,0,0,0,23.954,11.25ZM21.362,8.333a.305.305,0,0,1,.3.305V11.25H20V8.333ZM13.75,1.423,18.577,6.25H13.75ZM4.167.833h8.75v6.25h6.25V11.25H5.3a1.069,1.069,0,0,0-.176.015,1.051,1.051,0,0,0-.845.741l-.117.322V.833ZM.833,5.722a.305.305,0,0,1,.305-.305H3.333V14.6l-2.5,6.818ZM19.945,23.993a.236.236,0,0,1-.227.174H1.069a.23.23,0,0,1-.187-.093.226.226,0,0,1-.051-.17l2.5-6.863v0l1.733-4.752.011-.034a.236.236,0,0,1,.227-.174h18.65c.158,0,.2.227.209.341Z"/><path class="c" d="M15.417,15.833h4.167a.417.417,0,1,0,0-.833H15.417a.417.417,0,0,0,0,.833Z" transform="translate(-8.75 -8.75)"/><path class="c" d="M15.417,8.833h4.167a.417.417,0,1,0,0-.833H15.417a.417.417,0,0,0,0,.833Z" transform="translate(-8.75 -4.667)"/><path class="c" d="M15.417,22.833h10a.417.417,0,0,0,0-.833h-10a.417.417,0,0,0,0,.833Z" transform="translate(-8.75 -12.833)"/></g></svg>