<svg xmlns="http://www.w3.org/2000/svg" xmlns:xlink="http://www.w3.org/1999/xlink" width="20" height="20" viewBox="0 0 20 20"><defs><style>.a{fill:none;}.b{clip-path:url(#a);}.c{fill:#1aaae2;}</style><clipPath id="a"><rect class="a" width="20" height="20"/></clipPath></defs><g class="b"><path class="c" d="M471.06,388.091a.572.572,0,0,0,.028-.051.626.626,0,0,0,.029-.056.639.639,0,0,0,.026-.083c0-.011.007-.021.009-.032a.624.624,0,0,0-.17-.567l-3.125-3.125a.625.625,0,0,0-.884.884l2.059,2.059h-6.409a.625.625,0,1,0,0,1.25h6.408l-2.058,2.058a.625.625,0,1,0,.884.883l3.122-3.122A.615.615,0,0,0,471.06,388.091Z" transform="translate(-451.165 -378.995)"/><path class="c" d="M409.708,364.837a.625.625,0,0,0-.625.625v3.75a1.043,1.043,0,0,1-1.042,1.042h-2.708V357.337a1.682,1.682,0,0,0-1.135-1.585l-1.5-.5h5.339a1.043,1.043,0,0,1,1.042,1.042v3.75a.625.625,0,1,0,1.25,0V356.3A2.293,2.293,0,0,0,408.042,354h-9.375A1.668,1.668,0,0,0,397,355.671v15a1.682,1.682,0,0,0,1.135,1.585l5.015,1.671a1.715,1.715,0,0,0,.517.078,1.668,1.668,0,0,0,1.667-1.667V371.5h2.708a2.293,2.293,0,0,0,2.292-2.292v-3.75A.625.625,0,0,0,409.708,364.837Zm-5.625,7.5a.418.418,0,0,1-.417.417.45.45,0,0,1-.136-.018l-4.992-1.663a.433.433,0,0,1-.289-.4v-15a.418.418,0,0,1,.417-.417.455.455,0,0,1,.136.018l4.992,1.663a.433.433,0,0,1,.289.4Z" transform="translate(-397 -354.004)"/></g></svg>