<svg xmlns="http://www.w3.org/2000/svg" xmlns:xlink="http://www.w3.org/1999/xlink" width="20.703" height="25" viewBox="0 0 20.703 25"><defs><style>.a{fill:none;}.b{clip-path:url(#a);}.c{fill:#fff;}</style><clipPath id="a"><rect class="a" width="20.703" height="25"/></clipPath></defs><g class="b"><g transform="translate(9.853 2.1)"><path class="c" d="M246.824,43.144a.488.488,0,1,0,.143.345A.492.492,0,0,0,246.824,43.144Z" transform="translate(-245.991 -43.001)"/></g><path class="c" d="M62.323,1.9H58.594a2.992,2.992,0,0,0-2.07-.83H56.1a1.953,1.953,0,0,0-3.488,0H52.18a2.991,2.991,0,0,0-2.07.83H46.382A2.383,2.383,0,0,0,44,4.285V22.619A2.383,2.383,0,0,0,46.382,25H62.323A2.383,2.383,0,0,0,64.7,22.619V4.285A2.383,2.383,0,0,0,62.323,1.9ZM52.18,2.051h.761a.488.488,0,0,0,.471-.358.977.977,0,0,1,1.882,0,.488.488,0,0,0,.471.358h.76a2.029,2.029,0,0,1,2.019,1.856H50.16A2.029,2.029,0,0,1,52.18,2.051ZM63.728,22.619a1.406,1.406,0,0,1-1.4,1.4H46.382a1.406,1.406,0,0,1-1.4-1.4V4.285a1.406,1.406,0,0,1,1.4-1.4h3.044a2.985,2.985,0,0,0-.249,1.2v.317a.488.488,0,0,0,.488.488h9.374a.488.488,0,0,0,.488-.488V4.077a2.985,2.985,0,0,0-.249-1.2h3.045a1.406,1.406,0,0,1,1.4,1.4Z" transform="translate(-44.001 0)"/><g transform="translate(3.171 9.79)"><path class="c" d="M249.413,200h-2.924a.488.488,0,0,0,0,.977h2.924a.488.488,0,0,0,0-.977Z" transform="translate(-246.001 -200)"/></g><g transform="translate(3.171 12.695)"><path class="c" d="M253.521,260h-7.031a.488.488,0,1,0,0,.977h7.031a.488.488,0,0,0,0-.977Z" transform="translate(-246.001 -260)"/></g><g transform="translate(3.171 15.039)"><path class="c" d="M249.413,308h-2.924a.488.488,0,0,0,0,.977h2.924a.488.488,0,0,0,0-.977Z" transform="translate(-246.001 -308)"/></g><g transform="translate(9.376 15.073)"><path class="c" d="M253.521,368h-7.031a.488.488,0,1,0,0,.977h7.031a.488.488,0,0,0,0-.977Z" transform="translate(-246.001 -368)"/></g><g transform="translate(3.171 19.761)"><path class="c" d="M249.413,416h-2.924a.488.488,0,0,0,0,.977h2.924a.488.488,0,0,0,0-.977Z" transform="translate(-246.001 -416)"/></g><g transform="translate(3.171 7.422)"><path class="c" d="M253.521,152h-7.031a.488.488,0,1,0,0,.977h7.031a.488.488,0,0,0,0-.977Z" transform="translate(-246.001 -152)"/></g><g transform="translate(13.513 7.421)"><path class="c" d="M249.413,200h-2.924a.488.488,0,0,0,0,.977h2.924a.488.488,0,0,0,0-.977Z" transform="translate(-246.001 -200)"/></g><g transform="translate(9.376 9.79)"><path class="c" d="M253.521,152h-7.031a.488.488,0,1,0,0,.977h7.031a.488.488,0,0,0,0-.977Z" transform="translate(-246.001 -152)"/></g><g transform="translate(12.358 12.695)"><path class="c" d="M250.423,308h-3.79a.5.5,0,1,0,0,.977h3.79a.5.5,0,1,0,0-.977Z" transform="translate(-246.001 -308)"/></g><g transform="translate(3.171 17.384)"><path class="c" d="M253.521,260h-7.031a.488.488,0,1,0,0,.977h7.031a.488.488,0,0,0,0-.977Z" transform="translate(-246.001 -260)"/></g><g transform="translate(12.358 17.383)"><path class="c" d="M250.423,308h-3.79a.5.5,0,1,0,0,.977h3.79a.5.5,0,1,0,0-.977Z" transform="translate(-246.001 -308)"/></g><g transform="translate(9.376 19.761)"><path class="c" d="M253.521,368h-7.031a.488.488,0,1,0,0,.977h7.031a.488.488,0,0,0,0-.977Z" transform="translate(-246.001 -368)"/></g></g></svg>