<svg xmlns="http://www.w3.org/2000/svg" xmlns:xlink="http://www.w3.org/1999/xlink" width="19.166" height="25" viewBox="0 0 19.166 25"><defs><style>.a{fill:none;}.b{clip-path:url(#a);}.c{fill:#fff;}</style><clipPath id="a"><rect class="a" width="19.167" height="25"/></clipPath></defs><g class="b" transform="translate(0 0)"><path class="c" d="M.109,57.319V78.986a.417.417,0,0,0,.417.417H16.359a.417.417,0,0,0,.417-.417v-17.5c0-.009,0-.017-.005-.026a.393.393,0,0,0-.021-.107c0-.013-.008-.026-.014-.039a.412.412,0,0,0-.083-.122l-4.167-4.167a.4.4,0,0,0-.123-.083l-.038-.014a.413.413,0,0,0-.108-.022c-.007,0-.015,0-.024,0H.526a.417.417,0,0,0-.417.417Zm15.244,3.75H12.609V58.325ZM.943,57.736H11.776v3.75a.417.417,0,0,0,.417.417h3.75V78.569h-15Zm0,0" transform="translate(-0.109 -54.402)"/><path class="c" d="M72.008,21.667V22.5h1.25a.417.417,0,0,0,.417-.417V.417A.417.417,0,0,0,73.258,0H57.425a.417.417,0,0,0-.417.417v1.25h.833V.833h15V21.667Zm0,0" transform="translate(-54.508 0)"/><path class="c" d="M75.977,189.668h10v.833h-10Zm0,0" transform="translate(-72.643 -181.335)"/><path class="c" d="M75.977,132.766H79.31v.833H75.977Zm0,0" transform="translate(-72.643 -126.933)"/><path class="c" d="M75.977,246.566h6.667v.833H75.977Zm0,0" transform="translate(-72.643 -235.733)"/><path class="c" d="M246.676,246.566h2.5v.833h-2.5Zm0,0" transform="translate(-235.843 -235.733)"/><path class="c" d="M75.977,303.465h10v.833h-10Zm0,0" transform="translate(-72.643 -290.132)"/><path class="c" d="M75.977,417.266h10v.833h-10Zm0,0" transform="translate(-72.643 -398.933)"/><path class="c" d="M161.324,360.367h6.25v.833h-6.25Zm0,0" transform="translate(-154.241 -344.534)"/><path class="c" d="M75.977,360.367h2.917v.833H75.977Zm0,0" transform="translate(-72.643 -344.534)"/><path class="c" d="M75.977,474.168h1.667V475H75.977Zm0,0" transform="translate(-72.643 -453.335)"/><path class="c" d="M132.875,474.168h7.5V475h-7.5Zm0,0" transform="translate(-127.042 -453.335)"/></g></svg>