<svg xmlns="http://www.w3.org/2000/svg" xmlns:xlink="http://www.w3.org/1999/xlink" width="22" height="17" viewBox="0 0 22 17"><defs><style>.a{fill:none;}.b{clip-path:url(#a);}.c{fill:#1aaae2;}</style><clipPath id="a"><rect class="a" width="22" height="17"/></clipPath></defs><g class="b"><path class="c" d="M413.407,446.008H424.97a1,1,0,0,0,0-2H413.407l2.288-2.3a1,1,0,0,0-1.411-1.416l-3.992,4.005h0c-.023.023-.044.047-.065.072s-.018.024-.027.036-.022.028-.032.043-.018.029-.026.044-.016.027-.024.04-.015.03-.022.045-.014.029-.02.044-.011.03-.016.044-.012.032-.017.048-.008.03-.012.045-.009.033-.012.05-.005.035-.008.053,0,.029-.006.044c0,.033,0,.066,0,.1h0c0,.033,0,.066,0,.1,0,.015,0,.029.006.044s0,.035.008.053.008.033.012.05.007.03.012.045.011.032.017.048.01.03.016.044.013.029.02.044.014.03.022.045.016.027.024.041.017.029.026.043.021.029.032.044.017.024.026.035a.959.959,0,0,0,.066.073l3.992,4.005A1,1,0,1,0,415.7,448.3Z" transform="translate(-410 -440)"/><path class="c" d="M485.8,490.563c.009-.014.018-.029.026-.043s.017-.027.024-.041.015-.03.022-.045.014-.029.02-.044.011-.029.016-.044.012-.032.017-.048.008-.03.012-.045.009-.033.012-.05.005-.035.008-.053,0-.029.006-.044c0-.033,0-.066,0-.1h0c0-.033,0-.066,0-.1,0-.015,0-.029-.006-.044s0-.035-.008-.053-.008-.033-.012-.05-.007-.03-.012-.045-.011-.032-.017-.048-.01-.03-.016-.044-.013-.029-.02-.044-.014-.03-.022-.045-.016-.027-.024-.04-.017-.03-.026-.044-.021-.029-.032-.043-.017-.024-.027-.036-.042-.049-.065-.072h0l-3.992-4.005a1,1,0,1,0-1.411,1.416l2.288,2.3H471a1,1,0,0,0,0,2H482.56l-2.288,2.3a1,1,0,0,0,1.411,1.416l3.992-4.005a.984.984,0,0,0,.066-.073c.009-.011.017-.023.026-.035S485.79,490.578,485.8,490.563Z" transform="translate(-463.968 -478.013)"/></g></svg>