<svg xmlns="http://www.w3.org/2000/svg" width="42.844" height="42.771" viewBox="0 0 42.844 42.771"><defs><style>.a{fill:#4babdf;}.b{fill:#fff;}</style></defs><g transform="translate(3741 107)"><ellipse class="a" cx="21.422" cy="21.385" rx="21.422" ry="21.385" transform="translate(-3741 -107)"/><g transform="translate(-3730 -96)"><path class="b" d="M17.816,21.188A21.737,21.737,0,0,0,10.443,20a21.737,21.737,0,0,0-7.373,1.188A3.151,3.151,0,0,0,1,24.147v2.778a.63.63,0,0,0,.63.63H19.257a.63.63,0,0,0,.63-.63V24.147A3.151,3.151,0,0,0,17.816,21.188Z" transform="translate(0 -7.409)"/><path class="b" d="M13.036,11.332A5.042,5.042,0,0,0,18.073,6.3V5.036A5.036,5.036,0,0,0,8,5.036V6.3A5.042,5.042,0,0,0,13.036,11.332Z" transform="translate(-2.593)"/></g></g></svg>